<svg xmlns="http://www.w3.org/2000/svg" xmlns:xlink="http://www.w3.org/1999/xlink" contentStyleType="text/css" data-diagram-type="ACTIVITY" height="417px" preserveAspectRatio="none" style="width:729px;height:417px;background:#1B1B1B;" version="1.1" viewBox="0 0 729 417" width="729px" zoomAndPan="magnify"><title>Sensorik f&#252;r SLAM</title><defs/><g><rect fill="#1B1B1B" height="417" style="stroke:none;stroke-width:1;" width="729" x="0" y="0"/><g class="title" data-source-line="1"><text fill="#FFFFFF" font-family="sans-serif" font-size="14" font-weight="bold" lengthAdjust="spacing" textLength="144.9902" x="290.9934" y="32.9951">Sensorik f&#252;r SLAM</text></g><ellipse cx="291.5032" cy="57.2969" fill="#DDDDDD" rx="10" ry="10" style="stroke:#DDDDDD;stroke-width:1;"/><polygon fill="#313139" points="238.4287,87.2969,344.5776,87.2969,356.5776,99.2969,344.5776,111.2969,238.4287,111.2969,226.4287,99.2969,238.4287,87.2969" style="stroke:#E7E7E7;stroke-width:0.5;"/><text fill="#FFFFFF" font-family="sans-serif" font-size="11" lengthAdjust="spacing" textLength="106.1489" x="238.4287" y="103.105">"Sensor f&#252;r SLAM?"</text><text fill="#FFFFFF" font-family="sans-serif" font-size="11" lengthAdjust="spacing" textLength="42.9419" x="183.4868" y="96.7026">"LiDAR"</text><text fill="#FFFFFF" font-family="sans-serif" font-size="11" lengthAdjust="spacing" textLength="68.4063" x="356.5776" y="96.7026">"Ultraschall"</text><path d="M241.0195,158.8906 L241.0195,190.1563 L221.0195,194.1563 L241.0195,198.1563 L241.0195,229.4219 A0,0 0 0 0 241.0195,229.4219 L405.2036,229.4219 A0,0 0 0 0 405.2036,229.4219 L405.2036,168.8906 L395.2036,158.8906 L241.0195,158.8906 A0,0 0 0 0 241.0195,158.8906" fill="#714137" style="stroke:#E7E7E7;stroke-width:0.5;"/><path d="M395.2036,158.8906 L395.2036,168.8906 L405.2036,168.8906 L395.2036,158.8906" fill="#714137" style="stroke:#E7E7E7;stroke-width:0.5;"/><text fill="#FFFFFF" font-family="sans-serif" font-size="13" lengthAdjust="spacing" textLength="78.6538" x="247.0195" y="175.9575">+ G&#252;nstiger</text><text fill="#FFFFFF" font-family="sans-serif" font-size="13" lengthAdjust="spacing" textLength="118.1362" x="247.0195" y="191.0903">+ Echte 3D-Daten</text><text fill="#FFFFFF" font-family="sans-serif" font-size="13" lengthAdjust="spacing" textLength="143.1841" x="247.0195" y="206.2231">- Begrenztes Sichtfeld</text><text fill="#FFFFFF" font-family="sans-serif" font-size="13" lengthAdjust="spacing" textLength="87.9976" x="247.0195" y="221.356">- Lichtanf&#228;llig</text><rect fill="#313139" height="145.7188" rx="12.5" ry="12.5" style="stroke:#E7E7E7;stroke-width:0.5;" width="210.0195" x="11" y="121.2969"/><text fill="#FFFFFF" font-family="sans-serif" font-size="12" lengthAdjust="spacing" textLength="110.2207" x="21" y="142.4355">LiDAR; #LightBlue</text><text fill="#FFFFFF" font-family="sans-serif" font-size="12" lengthAdjust="spacing" textLength="59.0449" x="28.6289" y="156.4043">note right</text><text fill="#FFFFFF" font-family="sans-serif" font-size="12" lengthAdjust="spacing" textLength="132.7793" x="36.2578" y="170.373">+ Hohe Pr&#228;zision (2D)</text><text fill="#FFFFFF" font-family="sans-serif" font-size="12" lengthAdjust="spacing" textLength="113.7891" x="36.2578" y="184.3418">+ 360&#176; Abdeckung</text><text fill="#FFFFFF" font-family="sans-serif" font-size="12" lengthAdjust="spacing" textLength="174.7617" x="36.2578" y="198.3105">+ Unempfindlich gegen Licht</text><text fill="#FFFFFF" font-family="sans-serif" font-size="12" lengthAdjust="spacing" textLength="49.3008" x="36.2578" y="212.2793">- Kosten</text><text fill="#FFFFFF" font-family="sans-serif" font-size="12" lengthAdjust="spacing" textLength="53.4551" x="28.6289" y="226.248">end note</text><text fill="#FFFFFF" font-family="sans-serif" font-size="12" lengthAdjust="spacing" textLength="139.0488" x="21" y="240.2168">elseif ("Tiefenkamera")</text><text fill="#FFFFFF" font-family="sans-serif" font-size="12" lengthAdjust="spacing" textLength="165.123" x="28.6289" y="254.1855">:Tiefenkamera (Stereo/ToF)</text><path d="M528.7896,121.2969 L528.7896,144.9961 L508.7896,148.9961 L528.7896,152.9961 L528.7896,176.6953 A0,0 0 0 0 528.7896,176.6953 L717.9771,176.6953 A0,0 0 0 0 717.9771,176.6953 L717.9771,131.2969 L707.9771,121.2969 L528.7896,121.2969 A0,0 0 0 0 528.7896,121.2969" fill="#714137" style="stroke:#E7E7E7;stroke-width:0.5;"/><path d="M707.9771,121.2969 L707.9771,131.2969 L717.9771,131.2969 L707.9771,121.2969" fill="#714137" style="stroke:#E7E7E7;stroke-width:0.5;"/><text fill="#FFFFFF" font-family="sans-serif" font-size="13" lengthAdjust="spacing" textLength="97.4556" x="534.7896" y="138.3638">+ Sehr g&#252;nstig</text><text fill="#FFFFFF" font-family="sans-serif" font-size="13" lengthAdjust="spacing" textLength="149.3032" x="534.7896" y="153.4966">- Zu ungenau f&#252;r SLAM</text><text fill="#FFFFFF" font-family="sans-serif" font-size="13" lengthAdjust="spacing" textLength="168.1875" x="534.7896" y="168.6294">- Nur Hinderniserkennung</text><rect fill="#313139" height="33.9688" rx="12.5" ry="12.5" style="stroke:#E7E7E7;stroke-width:0.5;" width="83.5859" x="425.2036" y="132.0117"/><text fill="#FFFFFF" font-family="sans-serif" font-size="12" lengthAdjust="spacing" textLength="63.5859" x="435.2036" y="153.1504">Ultraschall</text><polygon fill="#313139" points="291.5032,273.0156,303.5032,285.0156,291.5032,297.0156,279.5032,285.0156,291.5032,273.0156" style="stroke:#E7E7E7;stroke-width:0.5;"/><rect fill="#313139" height="47.9375" rx="12.5" ry="12.5" style="stroke:#E7E7E7;stroke-width:0.5;" width="264.7988" x="159.1038" y="317.0156"/><text fill="#FFFFFF" font-family="sans-serif" font-size="12" lengthAdjust="spacing" textLength="85.5527" x="169.1038" y="338.1543">Entscheidung:</text><text fill="#FFFFFF" font-family="sans-serif" font-size="12" lengthAdjust="spacing" textLength="244.7988" x="169.1038" y="352.123">LiDAR als Basis f&#252;r robustes 2D-Mapping</text><ellipse cx="291.5032" cy="395.9531" fill="none" rx="11" ry="11" style="stroke:#DDDDDD;stroke-width:1;"/><ellipse cx="291.5032" cy="395.9531" fill="#DDDDDD" rx="6" ry="6" style="stroke:#DDDDDD;stroke-width:1;"/><line style="stroke:#E7E7E7;stroke-width:1;" x1="226.4287" x2="116.0098" y1="99.2969" y2="99.2969"/><line style="stroke:#E7E7E7;stroke-width:1;" x1="116.0098" x2="116.0098" y1="99.2969" y2="121.2969"/><polygon fill="#E7E7E7" points="112.0098,111.2969,116.0098,121.2969,120.0098,111.2969,116.0098,115.2969" style="stroke:#E7E7E7;stroke-width:1;"/><line style="stroke:#E7E7E7;stroke-width:1;" x1="356.5776" x2="466.9966" y1="99.2969" y2="99.2969"/><line style="stroke:#E7E7E7;stroke-width:1;" x1="466.9966" x2="466.9966" y1="99.2969" y2="132.0117"/><polygon fill="#E7E7E7" points="462.9966,122.0117,466.9966,132.0117,470.9966,122.0117,466.9966,126.0117" style="stroke:#E7E7E7;stroke-width:1;"/><line style="stroke:#E7E7E7;stroke-width:1;" x1="116.0098" x2="116.0098" y1="267.0156" y2="285.0156"/><line style="stroke:#E7E7E7;stroke-width:1;" x1="116.0098" x2="279.5032" y1="285.0156" y2="285.0156"/><polygon fill="#E7E7E7" points="269.5032,281.0156,279.5032,285.0156,269.5032,289.0156,273.5032,285.0156" style="stroke:#E7E7E7;stroke-width:1;"/><line style="stroke:#E7E7E7;stroke-width:1;" x1="466.9966" x2="466.9966" y1="165.9805" y2="285.0156"/><line style="stroke:#E7E7E7;stroke-width:1;" x1="466.9966" x2="303.5032" y1="285.0156" y2="285.0156"/><polygon fill="#E7E7E7" points="313.5032,281.0156,303.5032,285.0156,313.5032,289.0156,309.5032,285.0156" style="stroke:#E7E7E7;stroke-width:1;"/><line style="stroke:#E7E7E7;stroke-width:1;" x1="291.5032" x2="291.5032" y1="67.2969" y2="87.2969"/><polygon fill="#E7E7E7" points="287.5032,77.2969,291.5032,87.2969,295.5032,77.2969,291.5032,81.2969" style="stroke:#E7E7E7;stroke-width:1;"/><line style="stroke:#E7E7E7;stroke-width:1;" x1="291.5032" x2="291.5032" y1="297.0156" y2="317.0156"/><polygon fill="#E7E7E7" points="287.5032,307.0156,291.5032,317.0156,295.5032,307.0156,291.5032,311.0156" style="stroke:#E7E7E7;stroke-width:1;"/><line style="stroke:#E7E7E7;stroke-width:1;" x1="291.5032" x2="291.5032" y1="364.9531" y2="384.9531"/><polygon fill="#E7E7E7" points="287.5032,374.9531,291.5032,384.9531,295.5032,374.9531,291.5032,378.9531" style="stroke:#E7E7E7;stroke-width:1;"/><!--SRC=[RPBFQi904CRlUOh1NWn5MXHwq4DHOYiqbjBefVIocibco3eRTZSNdyS7w0DuQbwicp-W56yptmVp_NPc7Jc5a21RRQY0h3uRIEBvEWYi4yO5bC5mqDaNytaGWikHlHLJDFySX070j2rdS1UJpDr2LUX5rWx1D89l0EvXfNE43rEVZcH9-mdZAEojoTFZxm_CTodkYufbhsuP3sL6d2hQvo1H-jZObzt04Rnfwv1zWvosSG4gYotsXZ13BiG1ZUWGhnKO9WuDweUDVWbdjrXVwpDRHn9DBonzBC8a6aMYosm05YWDyj6XXQJXob2blTLo2ixgar8a_pDwmgroHjXzBfJg0A-4cqW9vWPapzMdV5NWruKigglpTTPxPM3bTuU6oQ8faBdRx0M4Kyg2OBfavsEHKkzFlxcz9GXbOI4isMwmqRlADkySHwErA4jYEVFVH9T_]--></g></svg>