<svg xmlns="http://www.w3.org/2000/svg" xmlns:xlink="http://www.w3.org/1999/xlink" contentStyleType="text/css" data-diagram-type="ACTIVITY" height="338px" preserveAspectRatio="none" style="width:964px;height:338px;background:#1B1B1B;" version="1.1" viewBox="0 0 964 338" width="964px" zoomAndPan="magnify"><title>Steuerungsarchitektur (ROS2 vs. PWM Echtzeit)</title><defs/><g><rect fill="#1B1B1B" height="338" style="stroke:none;stroke-width:1;" width="964" x="0" y="0"/><g class="title" data-source-line="1"><text fill="#FFFFFF" font-family="sans-serif" font-size="14" font-weight="bold" lengthAdjust="spacing" textLength="380.2695" x="290.8408" y="32.9951">Steuerungsarchitektur (ROS2 vs. PWM Echtzeit)</text></g><ellipse cx="337.4778" cy="57.2969" fill="#DDDDDD" rx="10" ry="10" style="stroke:#DDDDDD;stroke-width:1;"/><polygon fill="#313139" points="285.926,92.0005,389.0295,92.0005,401.0295,104.0005,389.0295,116.0005,285.926,116.0005,273.926,104.0005,285.926,92.0005" style="stroke:#E7E7E7;stroke-width:0.5;"/><text fill="#FFFFFF" font-family="sans-serif" font-size="11" lengthAdjust="spacing" textLength="103.1035" x="285.926" y="107.8086">"Architekturwahl?"</text><text fill="#FFFFFF" font-family="sans-serif" font-size="11" lengthAdjust="spacing" textLength="56.4985" x="147.8557" y="88.6016">"Option A:</text><text fill="#FFFFFF" font-family="sans-serif" font-size="11" lengthAdjust="spacing" textLength="126.0703" x="147.8557" y="101.4063">Alles auf einem Board"</text><text fill="#FFFFFF" font-family="sans-serif" font-size="11" lengthAdjust="spacing" textLength="56.52" x="401.0295" y="88.6016">"Option B:</text><text fill="#FFFFFF" font-family="sans-serif" font-size="11" lengthAdjust="spacing" textLength="125.8555" x="401.0295" y="101.4063">Getrennte Architektur"</text><path d="M206.5664,136.8208 L206.5664,152.9536 L186.5664,156.9536 L206.5664,160.9536 L206.5664,177.0864 A0,0 0 0 0 206.5664,177.0864 L460.1509,177.0864 A0,0 0 0 0 460.1509,177.0864 L460.1509,146.8208 L450.1509,136.8208 L206.5664,136.8208 A0,0 0 0 0 206.5664,136.8208" fill="#714137" style="stroke:#E7E7E7;stroke-width:0.5;"/><path d="M450.1509,136.8208 L450.1509,146.8208 L460.1509,146.8208 L450.1509,136.8208" fill="#714137" style="stroke:#E7E7E7;stroke-width:0.5;"/><text fill="#FFFFFF" font-family="sans-serif" font-size="13" lengthAdjust="spacing" textLength="231.9941" x="212.5664" y="153.8877">Problem: Linux ist kein Echtzeit-OS.</text><text fill="#FFFFFF" font-family="sans-serif" font-size="13" lengthAdjust="spacing" textLength="232.5845" x="212.5664" y="169.0205">PWM-Jitter &#8594; unsaubere Bewegung.</text><rect fill="#313139" height="61.9063" rx="12.5" ry="12.5" style="stroke:#E7E7E7;stroke-width:0.5;" width="175.5664" x="11" y="126.0005"/><text fill="#FFFFFF" font-family="sans-serif" font-size="12" lengthAdjust="spacing" textLength="87.3633" x="21" y="147.1392">Raspberry Pi 4</text><text fill="#FFFFFF" font-family="sans-serif" font-size="12" lengthAdjust="spacing" textLength="110.0098" x="21" y="161.1079">ROS2 (High-Level)</text><text fill="#FFFFFF" font-family="sans-serif" font-size="12" lengthAdjust="spacing" textLength="155.5664" x="21" y="175.0767">+ Motor-PWM (Low-Level)</text><path d="M692.1938,129.8364 L692.1938,145.9692 L672.1938,149.9692 L692.1938,153.9692 L692.1938,170.1021 A0,0 0 0 0 692.1938,170.1021 L952.9512,170.1021 A0,0 0 0 0 952.9512,170.1021 L952.9512,139.8364 L942.9512,129.8364 L692.1938,129.8364 A0,0 0 0 0 692.1938,129.8364" fill="#714137" style="stroke:#E7E7E7;stroke-width:0.5;"/><path d="M942.9512,129.8364 L942.9512,139.8364 L952.9512,139.8364 L942.9512,129.8364" fill="#714137" style="stroke:#E7E7E7;stroke-width:0.5;"/><text fill="#FFFFFF" font-family="sans-serif" font-size="13" lengthAdjust="spacing" textLength="195.7046" x="698.1938" y="146.9033">Vorteil: Echtzeitkritik auf Pico.</text><text fill="#FFFFFF" font-family="sans-serif" font-size="13" lengthAdjust="spacing" textLength="239.7573" x="698.1938" y="162.0361">Pi 4 entlastet. Saubere Ansteuerung.</text><rect fill="#313139" height="47.9375" rx="12.5" ry="12.5" style="stroke:#E7E7E7;stroke-width:0.5;" width="192.043" x="480.1509" y="126.0005"/><text fill="#FFFFFF" font-family="sans-serif" font-size="12" lengthAdjust="spacing" textLength="153.7559" x="490.1509" y="147.1392">Pi 4 &#8594; ROS2 (High-Level);</text><text fill="#FFFFFF" font-family="sans-serif" font-size="12" lengthAdjust="spacing" textLength="172.043" x="490.1509" y="161.1079">Pico &#8594; Motor-PWM (Echtzeit)</text><polygon fill="#313139" points="337.4778,193.9067,349.4778,205.9067,337.4778,217.9067,325.4778,205.9067,337.4778,193.9067" style="stroke:#E7E7E7;stroke-width:0.5;"/><rect fill="#313139" height="47.9375" rx="12.5" ry="12.5" style="stroke:#E7E7E7;stroke-width:0.5;" width="123.7227" x="275.6165" y="237.9067"/><text fill="#FFFFFF" font-family="sans-serif" font-size="12" lengthAdjust="spacing" textLength="85.5527" x="285.6165" y="259.0454">Entscheidung:</text><text fill="#FFFFFF" font-family="sans-serif" font-size="12" lengthAdjust="spacing" textLength="103.7227" x="285.6165" y="273.0142">Option B gew&#228;hlt</text><ellipse cx="337.4778" cy="316.8442" fill="none" rx="11" ry="11" style="stroke:#DDDDDD;stroke-width:1;"/><ellipse cx="337.4778" cy="316.8442" fill="#DDDDDD" rx="6" ry="6" style="stroke:#DDDDDD;stroke-width:1;"/><line style="stroke:#E7E7E7;stroke-width:1;" x1="273.926" x2="98.7832" y1="104.0005" y2="104.0005"/><line style="stroke:#E7E7E7;stroke-width:1;" x1="98.7832" x2="98.7832" y1="104.0005" y2="126.0005"/><polygon fill="#E7E7E7" points="94.7832,116.0005,98.7832,126.0005,102.7832,116.0005,98.7832,120.0005" style="stroke:#E7E7E7;stroke-width:1;"/><line style="stroke:#E7E7E7;stroke-width:1;" x1="401.0295" x2="576.1724" y1="104.0005" y2="104.0005"/><line style="stroke:#E7E7E7;stroke-width:1;" x1="576.1724" x2="576.1724" y1="104.0005" y2="126.0005"/><polygon fill="#E7E7E7" points="572.1724,116.0005,576.1724,126.0005,580.1724,116.0005,576.1724,120.0005" style="stroke:#E7E7E7;stroke-width:1;"/><line style="stroke:#E7E7E7;stroke-width:1;" x1="98.7832" x2="98.7832" y1="187.9067" y2="205.9067"/><line style="stroke:#E7E7E7;stroke-width:1;" x1="98.7832" x2="325.4778" y1="205.9067" y2="205.9067"/><polygon fill="#E7E7E7" points="315.4778,201.9067,325.4778,205.9067,315.4778,209.9067,319.4778,205.9067" style="stroke:#E7E7E7;stroke-width:1;"/><line style="stroke:#E7E7E7;stroke-width:1;" x1="576.1724" x2="576.1724" y1="173.938" y2="205.9067"/><line style="stroke:#E7E7E7;stroke-width:1;" x1="576.1724" x2="349.4778" y1="205.9067" y2="205.9067"/><polygon fill="#E7E7E7" points="359.4778,201.9067,349.4778,205.9067,359.4778,209.9067,355.4778,205.9067" style="stroke:#E7E7E7;stroke-width:1;"/><line style="stroke:#E7E7E7;stroke-width:1;" x1="337.4778" x2="337.4778" y1="67.2969" y2="92.0005"/><polygon fill="#E7E7E7" points="333.4778,82.0005,337.4778,92.0005,341.4778,82.0005,337.4778,86.0005" style="stroke:#E7E7E7;stroke-width:1;"/><line style="stroke:#E7E7E7;stroke-width:1;" x1="337.4778" x2="337.4778" y1="217.9067" y2="237.9067"/><polygon fill="#E7E7E7" points="333.4778,227.9067,337.4778,237.9067,341.4778,227.9067,337.4778,231.9067" style="stroke:#E7E7E7;stroke-width:1;"/><line style="stroke:#E7E7E7;stroke-width:1;" x1="337.4778" x2="337.4778" y1="285.8442" y2="305.8442"/><polygon fill="#E7E7E7" points="333.4778,295.8442,337.4778,305.8442,341.4778,295.8442,337.4778,299.8442" style="stroke:#E7E7E7;stroke-width:1;"/><!--SRC=[RP5DJiD038NtEONLLIAKBX2hT85IgGAXLeqQYMwoIHEtiJBrL3DE0no00t06Ri9DE0cJz1V1SlJU-Fbx5XA5a0esQ1hUsDmK5GdMqXZm5_Fq5lPs2Cbo1fEYaZSa2JpFIcx4epNuW_ZYR_DAtGy2a0hPAVETa6Q8eunZfT12tgm1YN4BOvsRSX1u0D4YjxiL6lCA2S5Tndsa_qYRAfpY7bMGyGtCj6WJTaluKzqUXP7xpbeGZ3EBUm0aHgyKRYEO4ZSlG5QWTeddrSDvEZmObxFmYKJGmFVx1pHiyyPjWJ365ZUkXyw6NFO17YgB5w2n0tf0CSZimg_u3q0THZ_q3yaeuuGAtOjNHETU_m5wraQGL7Gcg0q9rNsLtQmZJHU9B2gtWZA4z0WJiptTzJSFbxJsl6Z2OeiAgNG61tNYWmssNv-Laf4xjDxz0000]--></g></svg>