<svg xmlns="http://www.w3.org/2000/svg" xmlns:xlink="http://www.w3.org/1999/xlink" contentStyleType="text/css" data-diagram-type="ACTIVITY" height="428px" preserveAspectRatio="none" style="width:565px;height:428px;background:#1B1B1B;" version="1.1" viewBox="0 0 565 428" width="565px" zoomAndPan="magnify"><title>Antriebskonzept (4 R&#228;der)</title><defs/><g><rect fill="#1B1B1B" height="428" style="stroke:none;stroke-width:1;" width="565" x="0" y="0"/><g class="title" data-source-line="1"><text fill="#FFFFFF" font-family="sans-serif" font-size="14" font-weight="bold" lengthAdjust="spacing" textLength="209.2344" x="176.6591" y="32.9951">Antriebskonzept (4 R&#228;der)</text></g><ellipse cx="275.7412" cy="57.2969" fill="#DDDDDD" rx="10" ry="10" style="stroke:#DDDDDD;stroke-width:1;"/><polygon fill="#313139" points="228.1157,92.0005,323.3667,92.0005,335.3667,104.0005,323.3667,116.0005,228.1157,116.0005,216.1157,104.0005,228.1157,92.0005" style="stroke:#E7E7E7;stroke-width:0.5;"/><text fill="#FFFFFF" font-family="sans-serif" font-size="11" lengthAdjust="spacing" textLength="95.251" x="228.1157" y="107.8086">"Bewegungsart?"</text><text fill="#FFFFFF" font-family="sans-serif" font-size="11" lengthAdjust="spacing" textLength="52.9644" x="68.0723" y="88.6016">"holonom</text><text fill="#FFFFFF" font-family="sans-serif" font-size="11" lengthAdjust="spacing" textLength="148.0435" x="68.0723" y="101.4063">(max. Man&#246;vrierf&#228;higkeit)"</text><text fill="#FFFFFF" font-family="sans-serif" font-size="11" lengthAdjust="spacing" textLength="84.2939" x="335.3667" y="88.6016">"nicht-holonom</text><text fill="#FFFFFF" font-family="sans-serif" font-size="11" lengthAdjust="spacing" textLength="102.0615" x="335.3667" y="101.4063">(fahrzeug&#228;hnlich)"</text><rect fill="#313139" height="33.9688" rx="12.5" ry="12.5" style="stroke:#E7E7E7;stroke-width:0.5;" width="178.332" x="46.7522" y="126.0005"/><text fill="#FFFFFF" font-family="sans-serif" font-size="12" lengthAdjust="spacing" textLength="158.332" x="56.7522" y="147.1392">Omnidirektionale Antriebe</text><polygon fill="#313139" points="96.4111,179.9692,175.4253,179.9692,187.4253,191.9692,175.4253,203.9692,96.4111,203.9692,84.4111,191.9692,96.4111,179.9692" style="stroke:#E7E7E7;stroke-width:0.5;"/><text fill="#FFFFFF" font-family="sans-serif" font-size="11" lengthAdjust="spacing" textLength="79.0142" x="96.4111" y="195.7773">"Untergrund?"</text><text fill="#FFFFFF" font-family="sans-serif" font-size="11" lengthAdjust="spacing" textLength="74.4111" x="10" y="189.375">"glatt/Indoor"</text><text fill="#FFFFFF" font-family="sans-serif" font-size="11" lengthAdjust="spacing" textLength="51.5518" x="187.4253" y="189.375">"uneben"</text><rect fill="#313139" height="33.9688" rx="12.5" ry="12.5" style="stroke:#E7E7E7;stroke-width:0.5;" width="118.543" x="14.0037" y="213.9692"/><text fill="#FFFFFF" font-family="sans-serif" font-size="12" lengthAdjust="spacing" textLength="98.543" x="24.0037" y="235.1079">Mecanum-R&#228;der</text><rect fill="#313139" height="33.9688" rx="12.5" ry="12.5" style="stroke:#E7E7E7;stroke-width:0.5;" width="92.0293" x="152.5466" y="213.9692"/><text fill="#FFFFFF" font-family="sans-serif" font-size="12" lengthAdjust="spacing" textLength="72.0293" x="162.5466" y="235.1079">Omni-R&#228;der</text><polygon fill="#313139" points="135.9182,253.938,147.9182,265.938,135.9182,277.938,123.9182,265.938,135.9182,253.938" style="stroke:#E7E7E7;stroke-width:0.5;"/><rect fill="#313139" height="33.9688" rx="12.5" ry="12.5" style="stroke:#E7E7E7;stroke-width:0.5;" width="176.2578" x="327.4353" y="126.0005"/><text fill="#FFFFFF" font-family="sans-serif" font-size="12" lengthAdjust="spacing" textLength="156.2578" x="337.4353" y="147.1392">Gelenkte / starre Antriebe</text><rect fill="#AAAAAA" height="6" rx="2.5" ry="2.5" style="stroke:#AAAAAA;stroke-width:1;" width="279.9766" x="274.5759" y="179.9692"/><rect fill="#313139" height="33.9688" rx="12.5" ry="12.5" style="stroke:#E7E7E7;stroke-width:0.5;" width="81.8691" x="288.5759" y="205.9692"/><text fill="#FFFFFF" font-family="sans-serif" font-size="12" lengthAdjust="spacing" textLength="61.8691" x="298.5759" y="227.1079">Skid-Steer</text><rect fill="#313139" height="33.9688" rx="12.5" ry="12.5" style="stroke:#E7E7E7;stroke-width:0.5;" width="144.1074" x="398.4451" y="205.9692"/><text fill="#FFFFFF" font-family="sans-serif" font-size="12" lengthAdjust="spacing" textLength="124.1074" x="408.4451" y="227.1079">Ackermann-Lenkung</text><rect fill="#AAAAAA" height="6" rx="2.5" ry="2.5" style="stroke:#AAAAAA;stroke-width:1;" width="279.9766" x="274.5759" y="259.938"/><polygon fill="#313139" points="275.7412,283.938,287.7412,295.938,275.7412,307.938,263.7412,295.938,275.7412,283.938" style="stroke:#E7E7E7;stroke-width:0.5;"/><rect fill="#313139" height="47.9375" rx="12.5" ry="12.5" style="stroke:#E7E7E7;stroke-width:0.5;" width="236.3984" x="157.542" y="327.938"/><text fill="#FFFFFF" font-family="sans-serif" font-size="12" lengthAdjust="spacing" textLength="85.5527" x="167.542" y="349.0767">Entscheidung:</text><text fill="#FFFFFF" font-family="sans-serif" font-size="12" lengthAdjust="spacing" textLength="216.3984" x="167.542" y="363.0454">Mecanum-Antrieb f&#252;r Indoor-Agilit&#228;t</text><ellipse cx="275.7412" cy="406.8755" fill="none" rx="11" ry="11" style="stroke:#DDDDDD;stroke-width:1;"/><ellipse cx="275.7412" cy="406.8755" fill="#DDDDDD" rx="6" ry="6" style="stroke:#DDDDDD;stroke-width:1;"/><line style="stroke:#E7E7E7;stroke-width:1;" x1="84.4111" x2="73.2751" y1="191.9692" y2="191.9692"/><line style="stroke:#E7E7E7;stroke-width:1;" x1="73.2751" x2="73.2751" y1="191.9692" y2="213.9692"/><polygon fill="#E7E7E7" points="69.2751,203.9692,73.2751,213.9692,77.2751,203.9692,73.2751,207.9692" style="stroke:#E7E7E7;stroke-width:1;"/><line style="stroke:#E7E7E7;stroke-width:1;" x1="187.4253" x2="198.5613" y1="191.9692" y2="191.9692"/><line style="stroke:#E7E7E7;stroke-width:1;" x1="198.5613" x2="198.5613" y1="191.9692" y2="213.9692"/><polygon fill="#E7E7E7" points="194.5613,203.9692,198.5613,213.9692,202.5613,203.9692,198.5613,207.9692" style="stroke:#E7E7E7;stroke-width:1;"/><line style="stroke:#E7E7E7;stroke-width:1;" x1="73.2751" x2="73.2751" y1="247.938" y2="265.938"/><line style="stroke:#E7E7E7;stroke-width:1;" x1="73.2751" x2="123.9182" y1="265.938" y2="265.938"/><polygon fill="#E7E7E7" points="113.9182,261.938,123.9182,265.938,113.9182,269.938,117.9182,265.938" style="stroke:#E7E7E7;stroke-width:1;"/><line style="stroke:#E7E7E7;stroke-width:1;" x1="198.5613" x2="198.5613" y1="247.938" y2="265.938"/><line style="stroke:#E7E7E7;stroke-width:1;" x1="198.5613" x2="147.9182" y1="265.938" y2="265.938"/><polygon fill="#E7E7E7" points="157.9182,261.938,147.9182,265.938,157.9182,269.938,153.9182,265.938" style="stroke:#E7E7E7;stroke-width:1;"/><line style="stroke:#E7E7E7;stroke-width:1;" x1="135.9182" x2="135.9182" y1="159.9692" y2="179.9692"/><polygon fill="#E7E7E7" points="131.9182,169.9692,135.9182,179.9692,139.9182,169.9692,135.9182,173.9692" style="stroke:#E7E7E7;stroke-width:1;"/><line style="stroke:#E7E7E7;stroke-width:1;" x1="329.5105" x2="329.5105" y1="185.9692" y2="205.9692"/><polygon fill="#E7E7E7" points="325.5105,195.9692,329.5105,205.9692,333.5105,195.9692,329.5105,199.9692" style="stroke:#E7E7E7;stroke-width:1;"/><line style="stroke:#E7E7E7;stroke-width:1;" x1="470.4988" x2="470.4988" y1="185.9692" y2="205.9692"/><polygon fill="#E7E7E7" points="466.4988,195.9692,470.4988,205.9692,474.4988,195.9692,470.4988,199.9692" style="stroke:#E7E7E7;stroke-width:1;"/><line style="stroke:#E7E7E7;stroke-width:1;" x1="329.5105" x2="329.5105" y1="239.938" y2="259.938"/><polygon fill="#E7E7E7" points="325.5105,249.938,329.5105,259.938,333.5105,249.938,329.5105,253.938" style="stroke:#E7E7E7;stroke-width:1;"/><line style="stroke:#E7E7E7;stroke-width:1;" x1="470.4988" x2="470.4988" y1="239.938" y2="259.938"/><polygon fill="#E7E7E7" points="466.4988,249.938,470.4988,259.938,474.4988,249.938,470.4988,253.938" style="stroke:#E7E7E7;stroke-width:1;"/><line style="stroke:#E7E7E7;stroke-width:1;" x1="415.5642" x2="415.5642" y1="159.9692" y2="179.9692"/><polygon fill="#E7E7E7" points="411.5642,169.9692,415.5642,179.9692,419.5642,169.9692,415.5642,173.9692" style="stroke:#E7E7E7;stroke-width:1;"/><line style="stroke:#E7E7E7;stroke-width:1;" x1="216.1157" x2="135.9182" y1="104.0005" y2="104.0005"/><line style="stroke:#E7E7E7;stroke-width:1;" x1="135.9182" x2="135.9182" y1="104.0005" y2="126.0005"/><polygon fill="#E7E7E7" points="131.9182,116.0005,135.9182,126.0005,139.9182,116.0005,135.9182,120.0005" style="stroke:#E7E7E7;stroke-width:1;"/><line style="stroke:#E7E7E7;stroke-width:1;" x1="335.3667" x2="415.5642" y1="104.0005" y2="104.0005"/><line style="stroke:#E7E7E7;stroke-width:1;" x1="415.5642" x2="415.5642" y1="104.0005" y2="126.0005"/><polygon fill="#E7E7E7" points="411.5642,116.0005,415.5642,126.0005,419.5642,116.0005,415.5642,120.0005" style="stroke:#E7E7E7;stroke-width:1;"/><line style="stroke:#E7E7E7;stroke-width:1;" x1="135.9182" x2="135.9182" y1="277.938" y2="295.938"/><line style="stroke:#E7E7E7;stroke-width:1;" x1="135.9182" x2="263.7412" y1="295.938" y2="295.938"/><polygon fill="#E7E7E7" points="253.7412,291.938,263.7412,295.938,253.7412,299.938,257.7412,295.938" style="stroke:#E7E7E7;stroke-width:1;"/><line style="stroke:#E7E7E7;stroke-width:1;" x1="415.5642" x2="415.5642" y1="265.938" y2="295.938"/><line style="stroke:#E7E7E7;stroke-width:1;" x1="415.5642" x2="287.7412" y1="295.938" y2="295.938"/><polygon fill="#E7E7E7" points="297.7412,291.938,287.7412,295.938,297.7412,299.938,293.7412,295.938" style="stroke:#E7E7E7;stroke-width:1;"/><line style="stroke:#E7E7E7;stroke-width:1;" x1="275.7412" x2="275.7412" y1="67.2969" y2="92.0005"/><polygon fill="#E7E7E7" points="271.7412,82.0005,275.7412,92.0005,279.7412,82.0005,275.7412,86.0005" style="stroke:#E7E7E7;stroke-width:1;"/><line style="stroke:#E7E7E7;stroke-width:1;" x1="275.7412" x2="275.7412" y1="307.938" y2="327.938"/><polygon fill="#E7E7E7" points="271.7412,317.938,275.7412,327.938,279.7412,317.938,275.7412,321.938" style="stroke:#E7E7E7;stroke-width:1;"/><line style="stroke:#E7E7E7;stroke-width:1;" x1="275.7412" x2="275.7412" y1="375.8755" y2="395.8755"/><polygon fill="#E7E7E7" points="271.7412,385.8755,275.7412,395.8755,279.7412,385.8755,275.7412,389.8755" style="stroke:#E7E7E7;stroke-width:1;"/><!--SRC=[LP6nJiCm48RtFCMfKpE4BapjW8A4AYGg92gsBYQ-E2Sxvygv0Ehpv1cOsF9YE7MgblNkp_zzlWY9GoXP0k57PpsVy2Yml8UtST0OyYphH0N9g8RbuX6_qFHikZXvMEGW3N8SDzvvzks1bwtwleETul7dC_Q5UXmQCXP9yaMU0QnVMoPD0QsGPtK5uoPkpuXt5WmczAnl0COfaTKpQ-_3kIXMxR1ItBT5yfo-HzTX3FSS-_WIcuYt6TPKPtEIgMgakDhNgWadx4sqPXTti_GM7R8LX1LCjmZ_hMiVR4BjBUbYBvX8qnoKKSHfMrOMGwkOYvVO5eyuwwI2v9MjdrYwga7ICR0-yEMHCn3gyJT0kaDH6d8auo2R-8lyyGy0]--></g></svg>